<svg width="40" height="54" viewBox="0 0 40 54" fill="none" xmlns="http://www.w3.org/2000/svg">
<path d="M19.9768 53.8641L4.39275 49.5378L0.919922 10.5859H39.0804L35.6039 49.5317L19.9768 53.8641Z" fill="#264DE4"/>
<path d="M32.6274 47.0505L35.5983 13.7695H20V50.5513L32.6274 47.0505Z" fill="#2965F1"/>
<path d="M8.88086 28.2168L9.30903 32.994H19.9997V28.2168H8.88086Z" fill="#EBEBEB"/>
<path d="M8.02051 18.5469L8.45478 23.3242H19.9997V18.5469H8.02051Z" fill="#EBEBEB"/>
<path d="M19.9997 40.624L19.9787 40.6296L14.6582 39.1929L14.3181 35.3828H9.52246L10.1918 42.8838L19.9777 45.6005L19.9997 45.5944V40.624Z" fill="#EBEBEB"/>
<path d="M9.90039 0H15.6865V2.41965H12.32V4.83931H15.6865V7.25896H9.90039V0Z" fill="black"/>
<path d="M16.8438 0H22.6299V2.10405H19.2634V2.52485H22.6299V7.36416H16.8438V5.15491H20.2102V4.7341H16.8438V0Z" fill="black"/>
<path d="M23.7871 0H29.5732V2.10405H26.2068V2.52485H29.5732V7.36416H23.7871V5.15491H27.1536V4.7341H23.7871V0Z" fill="black"/>
<path d="M31.0881 28.2162L31.9506 18.5469H19.9834V23.3242H26.7151L26.2804 28.2162H19.9834V32.9935H25.8661L25.3116 39.1892L19.9834 40.6274V45.5975L29.7771 42.8832L29.849 42.0761L30.9716 29.4991L31.0881 28.2162Z" fill="white"/>
</svg>
