<svg width="54" height="49" viewBox="0 0 54 49" fill="none" xmlns="http://www.w3.org/2000/svg">
<path d="M44.3988 16.5253C43.8387 16.3325 43.2582 16.15 42.6605 15.9775C42.7588 15.5766 42.8489 15.1809 42.9291 14.7919C44.245 8.40447 43.3846 3.25872 40.4467 1.56453C37.6296 -0.059986 33.0225 1.63383 28.3696 5.68314C27.9222 6.07252 27.4735 6.48478 27.025 6.91683C26.7262 6.63097 26.4278 6.35473 26.1302 6.09049C21.2538 1.76071 16.3659 -0.063927 13.4309 1.63517C10.6166 3.2644 9.78312 8.10189 10.9676 14.1553C11.082 14.74 11.2157 15.3371 11.3669 15.9442C10.6751 16.1405 10.0073 16.3499 9.36826 16.5726C3.65119 18.5658 0 21.6897 0 24.93C0 28.2766 3.91955 31.6332 9.87433 33.6686C10.3443 33.8292 10.8319 33.981 11.3344 34.1252C11.1713 34.7818 11.0294 35.4252 10.9103 36.0528C9.78091 42.0011 10.6629 46.7243 13.4698 48.3433C16.369 50.0152 21.2348 48.2967 25.9728 44.1551C26.3473 43.8277 26.7231 43.4805 27.0996 43.1166C27.5876 43.5865 28.0748 44.0313 28.5594 44.4484C33.1488 48.3977 37.6814 49.9924 40.4857 48.3689C43.3821 46.6922 44.3234 41.6184 43.1013 35.4452C43.008 34.9738 42.8994 34.4921 42.7774 34.0019C43.1191 33.9009 43.4546 33.7966 43.7817 33.6882C49.9722 31.6371 54 28.3212 54 24.93C54 21.678 50.2311 18.533 44.3988 16.5253ZM43.0561 31.4985C42.7609 31.5962 42.4579 31.6907 42.1492 31.7823C41.4658 29.6188 40.5434 27.3181 39.4147 24.9412C40.4918 22.6209 41.3785 20.3497 42.0428 18.2002C42.5952 18.36 43.1313 18.5286 43.648 18.7065C48.645 20.4268 51.6931 22.9702 51.6931 24.93C51.6931 27.0175 48.4012 29.7274 43.0561 31.4985ZM40.8383 35.8932C41.3787 38.6229 41.4559 41.0909 41.0979 43.0202C40.7763 44.7538 40.1295 45.9096 39.3298 46.3725C37.628 47.3576 33.9887 46.0772 30.0639 42.6997C29.614 42.3126 29.1608 41.8992 28.7061 41.4616C30.2277 39.7975 31.7484 37.8629 33.2326 35.7144C35.8431 35.4827 38.3094 35.104 40.546 34.587C40.6561 35.0313 40.754 35.4671 40.8383 35.8932ZM18.4098 46.2023C16.7471 46.7895 15.4229 46.8063 14.6224 46.3448C12.9191 45.3623 12.211 41.57 13.1769 36.483C13.2875 35.9004 13.4192 35.302 13.571 34.6903C15.7831 35.1795 18.2313 35.5314 20.8481 35.7436C22.3423 37.846 23.9069 39.7785 25.4836 41.4706C25.1391 41.8031 24.796 42.1197 24.4548 42.4181C22.3596 44.2495 20.2601 45.5488 18.4098 46.2023ZM10.6204 31.4857C7.98732 30.5857 5.81281 29.416 4.32229 28.1397C2.98297 26.9927 2.30677 25.854 2.30677 24.93C2.30677 22.9637 5.23831 20.4556 10.1276 18.7509C10.7209 18.5441 11.3419 18.3492 11.9864 18.1661C12.6621 20.3641 13.5485 22.6622 14.6182 24.9861C13.5347 27.3445 12.6356 29.6792 11.9533 31.903C11.4938 31.771 11.0487 31.632 10.6204 31.4857ZM13.2315 13.7123C12.2167 8.52587 12.8907 4.61343 14.5867 3.63167C16.3932 2.58579 20.3881 4.07699 24.5985 7.81555C24.8676 8.0545 25.1378 8.3046 25.4087 8.56335C23.8398 10.248 22.2895 12.166 20.8086 14.256C18.2689 14.4914 15.8379 14.8695 13.6027 15.3759C13.4622 14.8106 13.3377 14.2552 13.2315 13.7123ZM36.5247 19.464C35.9903 18.541 35.4418 17.6399 34.8825 16.7634C36.6055 16.9812 38.2562 17.2703 39.8065 17.6241C39.341 19.1157 38.761 20.6752 38.0781 22.274C37.5883 21.344 37.0702 20.4064 36.5247 19.464ZM27.0258 10.212C28.0898 11.3648 29.1554 12.6518 30.2035 14.0482C29.1473 13.9983 28.0781 13.9724 27 13.9724C25.9321 13.9724 24.8708 13.9977 23.8211 14.0468C24.8703 12.6633 25.9451 11.378 27.0258 10.212ZM17.466 19.4799C16.9323 20.4054 16.4238 21.338 15.9417 22.2723C15.2699 20.6791 14.6952 19.1124 14.2257 17.5997C15.7664 17.2549 17.4094 16.973 19.1214 16.7593C18.5543 17.6439 18.0012 18.5517 17.466 19.4797V19.4799ZM19.1707 33.2651C17.4019 33.0678 15.7342 32.8004 14.1939 32.4651C14.6709 30.9254 15.2583 29.3253 15.9443 27.6978C16.4276 28.6314 16.9381 29.5644 17.4752 30.4919H17.4753C18.0223 31.4369 18.589 32.3625 19.1707 33.2651ZM27.0896 39.8106C25.9962 38.6309 24.9057 37.326 23.8406 35.9224C24.8745 35.9629 25.9287 35.9837 27 35.9837C28.1007 35.9837 29.1887 35.9589 30.2597 35.9112C29.2081 37.3401 28.1464 38.6471 27.0896 39.8106ZM38.1001 27.6149C38.8219 29.2599 39.4303 30.8517 39.9134 32.3652C38.3477 32.7224 36.6573 33.01 34.8762 33.2238C35.4368 32.3355 35.9901 31.4189 36.5339 30.476C37.084 29.5222 37.6063 28.5668 38.1001 27.6149ZM34.5357 29.3236C33.6915 30.7872 32.8249 32.1844 31.9451 33.5032C30.3427 33.6178 28.6873 33.6768 27 33.6768C25.3195 33.6768 23.6849 33.6246 22.1109 33.5225C21.1956 32.1863 20.3102 30.785 19.4715 29.3362H19.4716C18.6351 27.8913 17.8652 26.4342 17.1676 24.9853C17.865 23.5331 18.6329 22.0744 19.4646 20.6321L19.4644 20.6324C20.2984 19.1863 21.176 17.7918 22.0828 16.464C23.6888 16.3426 25.3356 16.2792 26.9999 16.2792H27C28.6718 16.2792 30.3207 16.3431 31.9262 16.4655C32.8192 17.7836 33.6909 19.1736 34.5281 20.6199C35.3748 22.0824 36.1526 23.5314 36.856 24.9526C36.1547 26.3981 35.3786 27.8617 34.5357 29.3236ZM39.2944 3.56304C41.1027 4.60584 41.8059 8.81144 40.6698 14.3263C40.5973 14.6782 40.5157 15.0366 40.4271 15.3998C38.1867 14.8829 35.754 14.4982 33.2069 14.2593C31.7231 12.1463 30.1855 10.2254 28.6421 8.5623C29.057 8.16311 29.4714 7.78248 29.8841 7.42328C33.8707 3.95386 37.5968 2.58406 39.2944 3.56304ZM27 20.108C29.6631 20.108 31.822 22.2668 31.822 24.93C31.822 27.593 29.6631 29.752 27 29.752C24.3369 29.752 22.178 27.593 22.178 24.93C22.178 22.2668 24.3369 20.108 27 20.108Z" fill="#00D8FF"/>
</svg>
