<svg width="54" height="54" viewBox="0 0 54 54" fill="none" xmlns="http://www.w3.org/2000/svg">
<path d="M54 0H0V54H54V0Z" fill="#F1DC50"/>
<path d="M27 24.75C27 35.4357 27 41.4357 27 42.75C27 44.7214 25.8235 47.25 22.5 47.25C17.1329 47.25 16.875 42.75 16.875 42.75M46.7774 30.4111C45.4272 28.137 43.6374 27 41.408 27C37.9268 27 36 29.25 36 31.5C36 33.75 37.125 36 41.6439 37.125C44.5195 37.8409 47.25 39.375 47.25 42.75C47.25 46.125 44.2902 47.25 41.625 47.25C38.2189 47.25 35.9689 45.75 34.875 42.75" stroke="#333333" stroke-width="2"/>
</svg>
