<svg width="54" height="52" viewBox="0 0 54 52" fill="none" xmlns="http://www.w3.org/2000/svg">
<path d="M37.4163 36.0686C39.4091 35.8625 40.9209 34.1445 40.8522 32.0829C40.7834 30.0213 39.0655 28.372 37.004 28.372H36.8666C34.7363 28.4407 33.0871 30.2274 33.1558 32.3578C33.2245 33.3886 33.6368 34.2819 34.2553 34.9004C31.9189 39.5046 28.3456 42.8719 22.9857 45.6894C19.3437 47.6136 15.5642 48.3008 11.7848 47.8197C8.69248 47.4074 6.28737 46.033 4.77559 43.7652C2.57664 40.398 2.37049 36.7558 4.22585 33.1137C5.53148 30.5023 7.593 28.5782 8.89863 27.6161C8.62376 26.7227 8.21146 25.2109 8.0053 24.1114C-1.9587 31.327 -0.927942 41.0852 2.09562 45.6894C4.36329 49.1254 8.96735 51.2557 14.0524 51.2557C15.4268 51.2557 16.8011 51.1183 18.1755 50.7747C26.9713 49.0567 33.6368 43.834 37.4163 36.0686ZM49.5105 27.5474C44.288 21.4313 36.5917 18.064 27.7959 18.064H26.6964C26.0779 16.8271 24.7723 16.0025 23.3293 16.0025H23.1918C21.0616 16.0712 19.4124 17.8579 19.4811 19.9882C19.5498 22.0498 21.2677 23.6991 23.3293 23.6991H23.4667C24.9785 23.6304 26.2841 22.6683 26.8338 21.3626H28.0707C33.2933 21.3626 38.2409 22.8744 42.7075 25.8294C46.1434 28.0971 48.6172 31.0521 49.9916 34.6255C51.1598 37.5117 51.091 40.3293 49.8541 42.7344C47.93 46.3766 44.7003 48.3695 40.4399 48.3695C37.6912 48.3695 35.0799 47.5448 33.7056 46.9264C32.9497 47.6136 31.5753 48.7131 30.6133 49.4003C33.5681 50.7747 36.5917 51.5306 39.4778 51.5306C46.0747 51.5306 50.9536 47.8884 52.809 44.2463C54.8018 40.2605 54.6643 33.3886 49.5105 27.5474ZM14.6022 37.2369C14.6709 39.2985 16.3888 40.9477 18.4503 40.9477H18.5878C20.718 40.879 22.3672 39.0923 22.2985 36.962C22.2298 34.9004 20.5118 33.2511 18.4503 33.2511H18.3129C18.1755 33.2511 17.9693 33.2511 17.8319 33.3198C15.0145 28.6469 13.8463 23.5616 14.2586 18.064C14.5334 13.9409 15.9078 10.3674 18.3129 7.41248C20.3057 4.86985 24.1539 3.63289 26.7651 3.56417C34.0491 3.42673 37.1414 12.4977 37.3476 16.1399C38.2409 16.3461 39.7527 16.8271 40.7834 17.1707C39.9588 6.03809 33.0871 0.265625 26.4902 0.265625C20.3057 0.265625 14.6022 4.73241 12.3345 11.3295C9.1735 20.1256 11.235 28.5782 15.0832 35.244C14.7396 35.725 14.5334 36.4809 14.6022 37.2369Z" fill="#764ABC"/>
</svg>
