<svg width="54" height="54" viewBox="0 0 54 54" fill="none" xmlns="http://www.w3.org/2000/svg">
<path d="M0 27V54H54V0H0V27ZM43.5172 24.849C44.8897 25.191 45.9337 25.8008 46.8945 26.7953C47.3917 27.3263 48.1297 28.2937 48.1882 28.5277C48.2062 28.5952 45.8573 30.1703 44.4353 31.0545C44.3835 31.0883 44.1765 30.8655 43.947 30.5235C43.2495 29.511 42.5227 29.0745 41.409 28.998C39.771 28.8855 38.718 29.7427 38.727 31.1737C38.7121 31.5257 38.7913 31.8752 38.9565 32.1863C39.3165 32.931 39.987 33.3787 42.084 34.2855C45.9518 35.9505 47.6055 37.0463 48.6337 38.6055C49.7812 40.3448 50.04 43.1235 49.2592 45.189C48.4042 47.4345 46.278 48.96 43.2855 49.464C42.3608 49.6282 40.167 49.6035 39.1725 49.4235C37.0035 49.0365 34.947 47.9655 33.678 46.5593C33.1808 46.0125 32.211 44.5792 32.2718 44.478C32.2965 44.442 32.5192 44.3048 32.7667 44.1608C33.0097 44.0235 33.9165 43.4992 34.7737 43.002L36.3263 42.102L36.6525 42.5835C37.107 43.2765 38.0993 44.2283 38.7 44.5455C40.4235 45.4545 42.7882 45.3263 43.9537 44.28C44.1881 44.0826 44.3736 43.8336 44.4958 43.5526C44.618 43.2715 44.6735 42.966 44.658 42.66C44.658 42.0345 44.5792 41.76 44.253 41.2875C43.8345 40.689 42.9772 40.185 40.5427 39.1275C37.7572 37.9282 36.558 37.1835 35.46 36C34.7747 35.219 34.2686 34.2974 33.9772 33.3C33.7725 32.5373 33.7208 30.6248 33.8828 29.8553C34.4565 27.162 36.4883 25.2878 39.42 24.7298C40.3718 24.5498 42.5835 24.6172 43.5172 24.849V24.849ZM30.8407 27.1035L30.8588 29.3153H23.8275V49.2863H18.855V29.3153H11.8305V27.1462C11.8305 25.9447 11.8552 24.9412 11.889 24.9187C11.916 24.8827 16.1933 24.8648 21.3773 24.8738L30.816 24.9008L30.8407 27.1035Z" fill="#3178C6"/>
</svg>
